<svg data-v-423bf9ae="" xmlns="http://www.w3.org/2000/svg" viewBox="0 0 204.4635327442421 60" class="font"><!----><!----><!----><g data-v-423bf9ae="" id="a95393f9-c88e-4482-815e-b7af166c66d3" fill="black" transform="matrix(3.678724765777588,0,0,3.678724765777588,0.14715349674224854,1.54506516456604)"><path d="M6.05 0.48L6.12 0.48C4.07 7.31 2.66 9.03 1.55 9.45L1.55 9.32C1.55 9.00 1.61 8.43 1.85 7.88C1.65 7.73 1.40 7.64 1.15 7.64C0.52 7.64-0.04 7.88-0.04 8.69C-0.04 9.94 0.46 10.61 1.16 10.61C2.83 10.61 4.30 8.62 6.19 2.59L6.12 4.23L5.61 10.43C5.78 10.54 6.03 10.61 6.29 10.61C6.80 10.61 7.22 10.43 7.48 9.79L10.53 2.62L9.59 8.95C9.39 10.23 10.22 10.61 10.99 10.61C11.80 10.61 12.63 10.02 13.40 9.23C13.48 9.13 13.52 9.02 13.52 8.92C13.52 8.78 13.44 8.65 13.29 8.58C12.96 8.86 12.31 9.28 11.86 9.28C11.48 9.28 11.28 9.07 11.40 8.25L12.54 0.18C12.38 0.07 12.03 0 11.77 0C11.26 0 10.82 0.27 10.57 0.90L7.32 8.22L7.83 0.77L7.84 0.77C8.16 0.77 8.33 0.49 8.33 0.22C8.33 0.08 8.27-0.06 8.13-0.14C7.53 0.20 6.34-0.42 5.18-0.42C3.53-0.42 2.86 0.59 2.86 1.47C2.86 2.17 3.28 2.80 3.99 2.80C4.19 2.80 4.38 2.76 4.59 2.66C4.42 2.46 4.31 2.16 4.31 1.85C4.31 1.19 4.77 0.48 6.05 0.48ZM13.24 7.92C12.96 9.23 13.05 10.60 14.43 10.60C15.13 10.60 15.76 10.14 16.31 9.45C16.20 9.83 16.11 10.18 16.02 10.51C13.69 11.55 11.79 12.39 11.79 14.17C11.79 15.33 12.70 15.89 13.48 15.89C15.97 15.89 17.01 13.13 17.65 10.53C18.65 10.07 19.60 9.44 19.85 9.21C20.09 9.00 20.05 8.69 19.84 8.51C19.35 8.93 18.61 9.35 17.84 9.73C17.88 9.55 17.92 9.35 17.96 9.16L19.15 3.61C18.98 3.50 18.75 3.43 18.49 3.43C17.99 3.43 17.46 3.67 17.32 4.31L16.41 8.50C16.09 8.81 15.74 9.00 15.33 9.00C14.87 9.00 14.76 8.67 14.85 8.23L15.72 4.20C15.85 3.67 15.55 3.43 15.05 3.43C14.46 3.43 13.96 3.72 13.48 4.10C13.20 4.33 13.30 4.76 13.48 4.87C13.61 4.76 13.69 4.70 13.76 4.70C13.89 4.70 13.96 4.83 13.90 5.05ZM13.50 14.64C13.31 14.64 12.92 14.48 12.92 13.99C12.92 12.92 14.07 12.25 15.74 11.44C15.02 13.69 14.46 14.64 13.50 14.64ZM21.34 10.43C21.49 10.54 21.76 10.61 22.08 10.61C22.60 10.61 23.14 10.37 23.28 9.72L24.00 6.30L24.21 6.30C26.52 6.30 28.46 4.68 28.46 2.16C28.46 0.84 27.51-0.28 25.05-0.28C22.32-0.28 20.16 0.64 20.16 2.30C20.16 3.00 20.58 3.63 21.29 3.63C21.49 3.63 21.69 3.58 21.90 3.49C21.73 3.29 21.62 3.04 21.62 2.67C21.62 1.62 22.41 0.39 24.77 0.39C26.18 0.39 26.74 1.25 26.74 2.27C26.74 4.21 25.59 5.57 24.14 5.64L25.12 1.02C24.95 0.91 24.71 0.84 24.46 0.84C23.97 0.84 23.44 1.06 23.30 1.71ZM31.26 3.37C29.15 3.37 27.68 6.02 27.68 8.13C27.68 9.45 28.29 10.61 29.74 10.61C31.93 10.61 33.43 7.97 33.43 5.88C33.43 4.51 32.79 3.37 31.26 3.37ZM31.57 4.44C32.14 4.44 32.38 5.01 32.38 5.77C32.38 7.24 31.49 9.39 30.38 9.39C29.89 9.39 29.47 8.92 29.47 7.69C29.47 6.31 30.30 4.44 31.57 4.44ZM40.36 8.36C40.52 8.11 40.38 7.81 40.01 7.88C39.41 8.68 38.12 9.39 37.11 9.39C36.36 9.39 35.77 8.99 35.77 7.88C35.77 5.87 36.68 4.37 37.46 4.37C37.81 4.37 37.98 4.51 37.98 4.77C37.98 4.97 37.91 5.35 37.76 5.68C37.91 5.82 38.14 5.88 38.32 5.88C38.84 5.88 39.30 5.52 39.30 4.73C39.30 3.82 38.74 3.37 37.60 3.37C35.50 3.37 34.03 5.95 34.03 8.11C34.03 9.83 35.10 10.61 36.41 10.61C37.77 10.61 39.40 9.77 40.36 8.36ZM43.04 1.27C43.13 0.74 42.87 0.50 42.36 0.50C41.78 0.50 41.27 0.80 40.80 1.18C40.52 1.40 40.61 1.83 40.80 1.95C40.92 1.83 41.01 1.78 41.08 1.78C41.20 1.78 41.27 1.90 41.22 2.13L39.47 10.43C39.63 10.54 39.87 10.61 40.12 10.61C40.60 10.61 41.10 10.37 41.23 9.73L41.73 7.36L42.06 7.28C42.27 8.37 42.63 10.61 44.03 10.61C44.62 10.61 45.58 9.84 46.09 9.23C46.17 9.13 46.21 9.02 46.21 8.92C46.21 8.78 46.13 8.65 45.98 8.58C45.61 8.92 45.30 9.17 45.02 9.17C44.06 9.17 43.65 7.67 43.46 6.86C44.34 6.44 45.22 5.60 45.21 4.48C45.21 3.72 44.95 3.43 44.42 3.43C43.93 3.43 43.51 3.70 43.33 4.07C43.47 4.28 43.53 4.55 43.53 4.94C43.53 5.78 43.06 6.30 42.17 6.57L41.89 6.64ZM50.93 4.72C50.93 4.09 50.61 3.37 49.34 3.37C47.03 3.37 45.82 6.29 45.82 8.11C45.82 9.83 46.89 10.61 48.20 10.61C49.56 10.61 51.18 9.77 52.15 8.36C52.30 8.11 52.16 7.81 51.80 7.88C51.20 8.68 49.91 9.39 48.90 9.39C48.26 9.39 47.74 9.11 47.60 8.36C50.30 6.86 50.93 5.91 50.93 4.72ZM49.43 4.47C49.67 4.47 49.84 4.69 49.84 5.01C49.84 5.92 48.92 6.90 47.56 7.76C47.60 6.78 48.05 4.47 49.43 4.47ZM54.85 4.31C55.29 4.31 55.51 3.95 55.44 3.50L54.42 3.50L54.81 1.65C54.64 1.54 54.40 1.47 54.15 1.47C53.65 1.47 53.12 1.71 52.98 2.35L52.72 3.50L52.44 3.50C52.01 3.50 51.79 3.86 51.86 4.31L52.56 4.31L51.66 8.54C51.34 10.08 51.90 10.61 52.75 10.61C53.69 10.61 54.75 9.97 55.41 9.23C55.50 9.13 55.54 9.02 55.54 8.92C55.54 8.78 55.45 8.65 55.30 8.58C54.95 8.93 54.35 9.28 53.83 9.28C53.47 9.28 53.24 9.03 53.41 8.25L54.24 4.31Z"></path></g><!----><!----></svg>